<svg xmlns="http://www.w3.org/2000/svg" xmlns:xlink="http://www.w3.org/1999/xlink" viewBox="0 0 48 48">
  <defs>
    <style>
      .cls-1 {
        clip-path: url(#clip-Соблюдение_режима_проветривания);
      }

      .cls-2 {
        fill: #f18b6c;
      }

      .cls-3 {
        fill: rgba(255,255,255,0.07);
      }
    </style>
    <clipPath id="clip-Соблюдение_режима_проветривания">
      <rect width="48" height="48"/>
    </clipPath>
  </defs>
  <g id="Соблюдение_режима_проветривания" data-name="Соблюдение режима проветривания" class="cls-1">
    <rect class="cls-3" width="48" height="48"/>
    <g id="window_2_" data-name="window (2)" transform="translate(0 -8.377)">
      <g id="Group_752" data-name="Group 752" transform="translate(0 9.377)">
        <path id="Path_561" data-name="Path 561" class="cls-2" d="M45.756,9.377a2.247,2.247,0,0,0-2.128,1.534H41.462v-.594H40.043v.594H37.771v-.594H36.352v.594H34.08v-.594H32.661v.594H30.389v-.594H28.97v.594H19.03v-.594H17.611v.594H15.339v-.594H13.92v.594H11.648v-.594H10.229v.594H7.957v-.594H6.538v.594H4.372a2.244,2.244,0,1,0,0,1.419H6.538v1.877H4.475V55.619H15.065V51.871H32.935v3.747H43.525V14.207H41.462V12.33h2.166a2.244,2.244,0,1,0,2.128-2.953ZM2.244,12.446a.825.825,0,1,1,.825-.825A.826.826,0,0,1,2.244,12.446Zm35.527-.115h2.272v1.877H37.771Zm-3.691,0h2.272v1.877H34.08Zm-3.691,0h2.272v1.877H30.389Zm-11.359,0h9.94v1.877H26.308l-.006.7c0,.042,0,.309.007.761H21.692c.009-.452.007-.72.007-.761l-.006-.7H19.03ZM32.935,45.964v1.373H15.065V45.964H23.48v-27.5H21.568c.034-.5.059-.962.077-1.373h4.709c.019.411.044.871.077,1.373H24.993v27.5ZM15.065,44.545V38.771c2.808-2.944,4.776-7.82,5.85-14.5.254-1.583.426-3.076.543-4.387h.6V44.545Zm.274-32.215h2.272v1.877H15.339Zm-3.691,0H13.92v1.877H11.648Zm-3.691,0h2.272v1.877H7.957ZM13.646,54.2H12.06V45.684H10.641V54.2H8.961V45.684H7.542V54.2H5.894V39.191h7.752Zm.408-16.428h-1.8a13.272,13.272,0,0,1,.155-2.408l-1.4-.212a14.774,14.774,0,0,0-.171,2.619H8.961V35.956H7.542v1.816H5.894V15.626h4.327a37.655,37.655,0,0,1-1.14,9.511l1.38.332a38.819,38.819,0,0,0,1.182-9.843H15.4a37.092,37.092,0,0,1-1.324,10.811l1.37.369a38.119,38.119,0,0,0,1.377-11.18h3.453C20.2,18.809,19.589,31.941,14.054,37.772Zm18.881,12.68H15.065v-1.7H32.935Zm0-5.907H26.412V19.883h.13c.116,1.31.288,2.8.543,4.387,1.074,6.68,3.042,11.557,5.85,14.5v5.774ZM40.458,54.2V45.684H39.039V54.2h-1.68V45.684H35.94V54.2H34.354V39.191h7.752V54.2H40.458Zm1.648-38.574h0V37.772H40.458V35.956H39.039v1.816H37.161a14.773,14.773,0,0,0-.171-2.619l-1.4.212a13.343,13.343,0,0,1,.154,2.408h-1.8c-5.531-5.827-6.15-18.962-6.217-22.146h3.453a38.123,38.123,0,0,0,1.377,11.18l1.37-.369A37.1,37.1,0,0,1,32.6,15.626h3.753a38.825,38.825,0,0,0,1.182,9.843l1.38-.332a37.78,37.78,0,0,1-1.14-9.511Zm3.65-3.18a.825.825,0,1,1,.825-.825A.826.826,0,0,1,45.756,12.446Z" transform="translate(0 -9.377)"/>
      </g>
    </g>
  </g>
</svg>
