<svg xmlns="http://www.w3.org/2000/svg" viewBox="0 0 50 50.001">
  <defs>
    <style>
      .cls-1 {
        fill: #f18b6c;
      }
    </style>
  </defs>
  <g id="trees" transform="translate(-0.006 -0.001)">
    <g id="Group_1463" data-name="Group 1463" transform="translate(0.006 0.001)">
      <path id="Path_897" data-name="Path 897" class="cls-1" d="M50.006,23.335a7.494,7.494,0,0,0-2.636-5.709,6.573,6.573,0,0,0,.969-3.458,6.677,6.677,0,0,0-5.892-6.622A6.653,6.653,0,0,0,30.428,2.8a6.646,6.646,0,0,0-10.845,0A6.657,6.657,0,0,0,7.564,7.546a6.677,6.677,0,0,0-5.892,6.622,6.572,6.572,0,0,0,.969,3.458,7.5,7.5,0,0,0,0,11.417A6.572,6.572,0,0,0,1.672,32.5a6.674,6.674,0,0,0,6.667,6.667h5v9.167h-2.5a.833.833,0,1,0,0,1.667H39.172a.833.833,0,1,0,0-1.667h-2.5V39.168h5A6.674,6.674,0,0,0,48.339,32.5a6.572,6.572,0,0,0-.969-3.458A7.5,7.5,0,0,0,50.006,23.335ZM8.339,37.494a5,5,0,0,1-5-4.993,4.943,4.943,0,0,1,1.094-3.116A.833.833,0,0,0,4.3,28.214q-.026-.021-.054-.04a5.833,5.833,0,0,1,0-9.68.833.833,0,0,0,.225-1.157c-.013-.019-.026-.036-.04-.054a4.943,4.943,0,0,1-1.094-3.116,5,5,0,0,1,5-5l.216.012a.815.815,0,0,0,.691-.323.828.828,0,0,0,.139-.75,5,5,0,0,1,9.307-3.571.04.04,0,0,1-.006.025,6.558,6.558,0,0,0-.24.957c-.01.056-.017.113-.026.167A6.281,6.281,0,0,0,18.4,7.544a6.677,6.677,0,0,0-5.892,6.624,6.572,6.572,0,0,0,.969,3.458c-.015.013-.028.028-.043.041L9.553,13.787a.833.833,0,0,0-1.178,1.178L12.3,18.892a7.492,7.492,0,0,0,1.173,10.152,6.521,6.521,0,0,0-.73,1.685L9.761,27.746a.833.833,0,0,0-1.178,1.178l3.941,3.941c.007.116.008.233.021.346.008.078.024.153.035.23.022.154.043.307.076.458.019.09.046.177.068.265.034.133.068.268.111.4.03.092.066.181.1.272.046.122.092.244.145.363.04.09.083.178.128.265.057.114.115.227.178.333.049.083.1.167.155.25.067.106.135.209.208.31.058.083.118.161.179.239.076.1.155.193.237.286.066.075.133.149.2.221.083.09.176.176.268.261.046.043.088.092.136.133H8.339ZM24.172,48.335H15.005V39.168h9.167Zm.833-37.5a.833.833,0,0,0-.833.833v5.905l-3.786-3.786a.833.833,0,0,0-1.178,1.178l4.964,4.964V31.323l-3.578-3.578a.833.833,0,0,0-1.178,1.178l4.756,4.756V37.5h-5a5,5,0,0,1-5-5,4.943,4.943,0,0,1,1.094-3.116.833.833,0,0,0-.131-1.171q-.026-.021-.054-.04a5.833,5.833,0,0,1,0-9.68.833.833,0,0,0,.225-1.157c-.012-.019-.026-.036-.04-.054a4.943,4.943,0,0,1-1.094-3.116,5,5,0,0,1,5-5l.216.012a.806.806,0,0,0,.691-.323.828.828,0,0,0,.139-.75,5.012,5.012,0,0,1-.213-1.439,4.922,4.922,0,0,1,.087-.917.089.089,0,0,1,.005-.036,5.127,5.127,0,0,1,.261-.881,4.993,4.993,0,0,1,9.293,0,5.131,5.131,0,0,1,.261.887.089.089,0,0,0,.005.036,4.922,4.922,0,0,1,.088.911,5.012,5.012,0,0,1-.212,1.439.828.828,0,0,0,.139.75.812.812,0,0,0,.691.323l.216-.012a5,5,0,0,1,5,5,4.943,4.943,0,0,1-1.094,3.116.833.833,0,0,0,.131,1.171q.026.021.054.04a5.833,5.833,0,0,1,0,9.68.833.833,0,0,0-.225,1.157c.013.019.026.036.04.054A4.943,4.943,0,0,1,35.839,32.5a5,5,0,0,1-5,5h-5V26.122a.8.8,0,0,0,.173-.115l5.417-5.417a.833.833,0,0,0-1.178-1.178l-4.411,4.411V11.668A.833.833,0,0,0,25.006,10.835Zm10,37.5H25.839V39.168h9.167Zm10.533-19c.012.019.026.036.04.054A4.943,4.943,0,0,1,46.672,32.5a5,5,0,0,1-5,5H35.244c.047-.042.09-.09.136-.133.092-.083.181-.171.268-.261.068-.072.135-.146.2-.221.083-.093.161-.187.237-.286.062-.078.122-.158.179-.239.073-.1.141-.2.208-.31.053-.083.106-.167.155-.25.063-.11.121-.223.178-.333.043-.088.083-.175.127-.265.053-.118.1-.241.145-.363.034-.091.07-.179.1-.272.042-.13.077-.264.111-.4.022-.088.049-.175.068-.265.033-.151.054-.3.076-.458.011-.077.027-.152.035-.23a6.643,6.643,0,0,0,.039-.717,6.572,6.572,0,0,0-.969-3.458A7.486,7.486,0,0,0,39.152,23.7l3.109-3.109a.833.833,0,0,0-1.178-1.178l-2.134,2.134a7.486,7.486,0,0,0-2.413-3.917,6.573,6.573,0,0,0,.969-3.462,6.677,6.677,0,0,0-5.892-6.622,6.281,6.281,0,0,0-.025-1.859c-.008-.057-.016-.113-.026-.167a6.559,6.559,0,0,0-.24-.957.04.04,0,0,0-.006-.025A5,5,0,0,1,40.624,8.11a.828.828,0,0,0,.139.75.815.815,0,0,0,.691.323l.218-.014a5,5,0,0,1,5,5,4.943,4.943,0,0,1-1.094,3.116.833.833,0,0,0,.131,1.171q.026.021.054.04a5.833,5.833,0,0,1,0,9.68A.833.833,0,0,0,45.539,29.332Z" transform="translate(-0.006 -0.001)"/>
    </g>
  </g>
</svg>
