<svg xmlns="http://www.w3.org/2000/svg" viewBox="0 0 45.384 51">
  <defs>
    <style>
      .cls-1 {
        fill: #f18b6c;
      }
    </style>
  </defs>
  <g id="boy-broad-smile" transform="translate(-23.357 0)">
    <path id="Path_893" data-name="Path 893" class="cls-1" d="M108.176,231.481a1.746,1.746,0,0,1,1.243.515.962.962,0,0,0,1.36-1.36,3.681,3.681,0,0,0-5.206,0,.962.962,0,0,0,1.36,1.36A1.746,1.746,0,0,1,108.176,231.481Z" transform="translate(-72.085 -201.962)"/>
    <path id="Path_894" data-name="Path 894" class="cls-1" d="M271.236,230.649a.962.962,0,1,0,1.36,1.36,1.76,1.76,0,0,1,2.486,0,.962.962,0,1,0,1.36-1.36A3.686,3.686,0,0,0,271.236,230.649Z" transform="translate(-217.832 -201.975)"/>
    <path id="Path_895" data-name="Path 895" class="cls-1" d="M137.22,315.386a14.091,14.091,0,0,1-19.9,0,.962.962,0,0,0-1.36,1.36,16.016,16.016,0,0,0,22.625,0,.962.962,0,0,0-1.36-1.36Z" transform="translate(-81.218 -277.224)"/>
    <path id="Path_896" data-name="Path 896" class="cls-1" d="M68.741,30.556a5.341,5.341,0,0,0-4.372-5.245V9.222A6.211,6.211,0,0,0,56.1,3.362L50.059,1.313A23.959,23.959,0,0,0,35.936.846c-6.022,1.661-9.474,5.175-10.007,10.169a7.3,7.3,0,0,0-1.1,2.074l-.468,1.386A1.67,1.67,0,0,0,27.1,16.21a3.356,3.356,0,0,1,.626-.475v9.576a5.332,5.332,0,0,0,.3,10.536,18.468,18.468,0,0,0,5.05,9.7A18.092,18.092,0,0,0,46.049,51h0A18.331,18.331,0,0,0,64.1,35.843,5.341,5.341,0,0,0,68.741,30.556ZM60.528,5.649a4.223,4.223,0,0,1,1.917,3.573V21.807a6.249,6.249,0,0,1-5.277-6.165l-.08-10.574A4.211,4.211,0,0,1,60.528,5.649ZM26.463,14.258l.187-.553a5.387,5.387,0,0,1,7.378-3.159,7.354,7.354,0,0,0,8.562-1.783l.238-.269a.962.962,0,0,0-1.441-1.274l-.238.269A5.419,5.419,0,0,1,34.84,8.8a7.319,7.319,0,0,0-5.964-.093c-.174.074-.343.157-.509.244,1.118-2.98,3.823-5.079,8.08-6.253a22.043,22.043,0,0,1,12.993.435l5.725,1.943.075,4.969a16.9,16.9,0,0,1-10.5,6.619A16.909,16.909,0,0,1,32.275,14.2,5.212,5.212,0,0,0,26.463,14.258Zm-1.183,16.3a3.416,3.416,0,0,1,2.448-3.271V32.5q0,.675.048,1.343A3.416,3.416,0,0,1,25.28,30.556ZM57.643,44.274a16.29,16.29,0,0,1-11.593,4.8h0a16.184,16.184,0,0,1-11.6-4.877,16.571,16.571,0,0,1-4.8-11.7V15.281a3.324,3.324,0,0,1,1.572.534A18.822,18.822,0,0,0,45.1,18.555a18.81,18.81,0,0,0,10.148-5.522v2.61a8.173,8.173,0,0,0,7.2,8.1v8.933A16.289,16.289,0,0,1,57.643,44.274Zm6.689-10.436c.024-.384.037-.77.037-1.158V27.285a3.409,3.409,0,0,1-.037,6.553Z" transform="translate(0 0)"/>
  </g>
</svg>
