<svg xmlns="http://www.w3.org/2000/svg" xmlns:xlink="http://www.w3.org/1999/xlink" viewBox="0 0 48 48">
  <defs>
    <style>
      .cls-1 {
        clip-path: url(#clip-Граммотная_физическая_нагрузка_детей);
      }

      .cls-2 {
        fill: #f18b6c;
      }

      .cls-3 {
        fill: rgba(255,255,255,0.07);
      }
    </style>
    <clipPath id="clip-Граммотная_физическая_нагрузка_детей">
      <rect width="48" height="48"/>
    </clipPath>
  </defs>
  <g id="Граммотная_физическая_нагрузка_детей" data-name="Граммотная физическая нагрузка детей" class="cls-1">
    <rect class="cls-3" width="48" height="48"/>
    <g id="runner" transform="translate(0 -15.069)">
      <g id="Group_1630" data-name="Group 1630" transform="translate(0 17.07)">
        <g id="Group_1629" data-name="Group 1629">
          <path id="Path_977" data-name="Path 977" class="cls-2" d="M49.651,409.6h-14.7a.817.817,0,1,0,0,1.633h14.7a.817.817,0,1,0,0-1.633Z" transform="translate(-30.867 -372.031)"/>
          <path id="Path_978" data-name="Path 978" class="cls-2" d="M17.884,308.83h6.533a.817.817,0,1,0,0-1.633H17.884a.817.817,0,1,0,0,1.633Z" transform="translate(-15.434 -279.431)"/>
          <path id="Path_979" data-name="Path 979" class="cls-2" d="M14.7,359.214a.817.817,0,0,0-.817-.817H.817a.817.817,0,0,0,0,1.633H13.883A.817.817,0,0,0,14.7,359.214Z" transform="translate(0 -325.731)"/>
          <path id="Path_980" data-name="Path 980" class="cls-2" d="M80.34,51.369h-4.9a.817.817,0,1,0,0,1.633h4.9A5.566,5.566,0,0,1,86,57.9H72.512L46.378,31.769,58.706,19.441c.677,2.149,2.233,6.331,4.724,8.822,2.791,2.791,7.633,3.361,9.561,3.477V38.3H71.062a1.633,1.633,0,1,0,0,1.633H72.99v4.9H71.062a1.633,1.633,0,1,0,0,1.633H72.99v.817a.815.815,0,0,0,.239.577L74.863,49.5a.817.817,0,0,0,1.155-1.155l-1.394-1.394v-16a.817.817,0,0,0-.817-.817c-.062,0-6.23-.034-9.223-3.027-3.066-3.066-4.67-9.358-4.685-9.421a.816.816,0,0,0-1.37-.379L44.647,31.191h0L43.53,32.309a2.819,2.819,0,0,0,.064,3.885L69.146,61.746A3.937,3.937,0,0,0,71.8,62.8H85.24a2.424,2.424,0,0,0,2.45-2.45V58.719A7.272,7.272,0,0,0,80.34,51.369Zm5.717,8.983a.8.8,0,0,1-.817.817H71.8a2.38,2.38,0,0,1-1.5-.577L44.748,35.039a1.176,1.176,0,0,1-.064-1.575l.539-.54L71.6,59.3a.815.815,0,0,0,.577.239H86.057v.817Z" transform="translate(-38.69 -17.07)"/>
          <path id="Path_981" data-name="Path 981" class="cls-2" d="M273.067,222.681v9.8a.817.817,0,1,0,1.633,0v-9.8a.817.817,0,1,0-1.633,0Z" transform="translate(-246.934 -202.265)"/>
          <path id="Path_982" data-name="Path 982" class="cls-2" d="M201.4,95.808a.817.817,0,0,0,.114-1.625,16.283,16.283,0,0,1-12.456-9.246.817.817,0,0,0-1.479.693,17.913,17.913,0,0,0,13.7,10.17A.815.815,0,0,0,201.4,95.808Z" transform="translate(-169.555 -78.017)"/>
        </g>
      </g>
    </g>
  </g>
</svg>
