<svg xmlns="http://www.w3.org/2000/svg" xmlns:xlink="http://www.w3.org/1999/xlink" viewBox="0 0 48 48">
  <defs>
    <style>
      .cls-1 {
        clip-path: url(#clip-Режима_кварцевания_спальни_игрупповых_помещений);
      }

      .cls-2 {
        fill: #f18b6c;
      }

      .cls-3 {
        fill: rgba(255,255,255,0.07);
      }
    </style>
    <clipPath id="clip-Режима_кварцевания_спальни_игрупповых_помещений">
      <rect width="48" height="48"/>
    </clipPath>
  </defs>
  <g id="Режима_кварцевания_спальни_игрупповых_помещений" data-name="Режима кварцевания спальни игрупповых помещений" class="cls-1">
    <rect class="cls-3" width="48" height="48"/>
    <path id="lamp" class="cls-2" d="M35.978,31.217l9.038-9.038a3.185,3.185,0,0,0,0-6.357L35.2,6.006V3.8a.8.8,0,0,0-.8-.8H.8a.8.8,0,0,0-.8.8v8.8a.8.8,0,0,0,.8.8H34.4a.787.787,0,0,0,.767-.638L41.406,19l-8.821,8.822A3.172,3.172,0,0,0,30.4,33.094V42.2H9.6a.8.8,0,0,0-.8.8v2.4a.8.8,0,0,0,.8.8H44.8a.8.8,0,0,0,.8-.8V43a.8.8,0,0,0-.8-.8H34.4V33.755A3.184,3.184,0,0,0,35.978,31.217ZM46.4,19a1.6,1.6,0,0,1-1.6,1.6c-.017,0-.033,0-.05,0s-.022-.006-.034-.006a1.586,1.586,0,0,1-1.506-1.506c0-.011-.006-.022-.006-.034s0-.033,0-.05,0-.032,0-.048.006-.022.007-.034a1.587,1.587,0,0,1,1.506-1.506c.011,0,.022-.006.034-.006s.032-.006.049-.006A1.6,1.6,0,0,1,46.4,19ZM31.2,4.6v.8H29.6V4.6ZM4,11.8V10.2H31.2v1.6Zm29.6,0h-.8V9.4a.8.8,0,0,0-.8-.8H3.2a.8.8,0,0,0-.8.8v2.4H1.6V4.6H28V6.2a.8.8,0,0,0,.8.8H32a.8.8,0,0,0,.8-.8V4.6h.8v7.2Zm1.6-3.531,7.98,7.98c-.012.007-.021.018-.033.026a3.2,3.2,0,0,0-1.074,1.075c-.006.011-.018.02-.024.031L35.2,10.531ZM42.049,20.62c.007.012.018.021.026.033a3.2,3.2,0,0,0,1.073,1.073c.012.007.021.018.033.026L35.552,29.38c-.006-.011-.018-.02-.024-.031a3.2,3.2,0,0,0-1.074-1.075c-.012-.007-.021-.018-.033-.026ZM32.8,29.4c.017,0,.033,0,.05,0s.022.006.034.006a1.587,1.587,0,0,1,1.506,1.506c0,.012.006.022.007.034s0,.032,0,.049a1.6,1.6,0,0,1-1.036,1.492c-.01,0-.021,0-.031.007a1.743,1.743,0,0,1-.4.087c-.035,0-.069.01-.1.01a1.48,1.48,0,0,1-.208-.014,1.561,1.561,0,0,1-.314-.067,1.377,1.377,0,0,1-.186-.071c-.032-.015-.062-.034-.093-.05a1.849,1.849,0,0,1-.3-.211l-.015-.01A1.594,1.594,0,0,1,32.8,29.4ZM44,44.6H10.4v-.8H44ZM32.8,42.2H32V34.1c.028.007.057.01.085.017.052.012.1.022.156.03a3.111,3.111,0,0,0,.559.057Z" transform="translate(0 -1)"/>
  </g>
</svg>
