<svg xmlns="http://www.w3.org/2000/svg" viewBox="0 0 42.546 42.901">
  <defs>
    <style>
      .cls-1 {
        fill: #f18b6c;
      }
    </style>
  </defs>
  <g id="palette" transform="translate(-2.125 0)">
    <g id="Group_1440" data-name="Group 1440" transform="translate(7.841 0.632)">
      <g id="Group_1439" data-name="Group 1439">
        <path id="Path_883" data-name="Path 883" class="cls-1" d="M106.177,8.2a2.31,2.31,0,0,0-3.106-.109l-17.532,15c-4.23,3.631-14.591,15.738-15.03,16.253a.714.714,0,0,0,.038.969L73.4,43.176a.714.714,0,0,0,.944.059c.575-.447,14.147-11.023,19.251-17l12.639-14.807A2.31,2.31,0,0,0,106.177,8.2Zm-1.006,2.27L92.511,25.3C88.043,30.54,76.5,39.723,73.967,41.718l-1.942-1.942C74.065,37.408,82.8,27.33,86.469,24.182l17.526-15a.88.88,0,0,1,1.178.035A.892.892,0,0,1,105.171,10.474Z" transform="translate(-70.337 -7.547)"/>
      </g>
    </g>
    <g id="Group_1442" data-name="Group 1442" transform="translate(2.125 32.184)">
      <g id="Group_1441" data-name="Group 1441">
        <path id="Path_884" data-name="Path 884" class="cls-1" d="M11.921,386.8l-2.45-2.479a.716.716,0,0,0-.778-.159l-.579.236a9.581,9.581,0,0,0-5.989,8.941v.772a.715.715,0,0,0,.714.714h0a9.567,9.567,0,0,0,9.2-7.1l.064-.236A.715.715,0,0,0,11.921,386.8Zm-8.367,6.562v-.026a8.16,8.16,0,0,1,5.1-7.616l.136-.056,1.825,1.847A8.141,8.141,0,0,1,3.554,393.362Z" transform="translate(-2.125 -384.109)"/>
      </g>
    </g>
    <g id="Group_1444" data-name="Group 1444" transform="translate(18.052 20.962)">
      <g id="Group_1443" data-name="Group 1443" transform="translate(0 0)">
        <rect id="Rectangle_374" data-name="Rectangle 374" class="cls-1" width="1.429" height="6.062" transform="translate(0 1.01) rotate(-45)"/>
      </g>
    </g>
    <g id="Group_1446" data-name="Group 1446" transform="translate(15.907 23.106)">
      <g id="Group_1445" data-name="Group 1445" transform="translate(0 0)">
        <rect id="Rectangle_375" data-name="Rectangle 375" class="cls-1" width="1.429" height="6.062" transform="translate(0 1.01) rotate(-45)"/>
      </g>
    </g>
    <g id="Group_1448" data-name="Group 1448" transform="translate(12.282 10.272)">
      <g id="Group_1447" data-name="Group 1447">
        <path id="Path_885" data-name="Path 885" class="cls-1" d="M155.661,135.934a29.063,29.063,0,0,0-6.871-13.345l-1.057.961a27.608,27.608,0,0,1,6.53,12.674,2.143,2.143,0,0,1-3.149,2.286l-1.47-.806a3.472,3.472,0,0,0-4.754,4.629l2.923,5.716a3.483,3.483,0,0,1,.193.451,3.574,3.574,0,0,1-2.18,4.546c-6.445,2.1-14.9-.338-21.536-6.221l-.947,1.069c5.314,4.711,11.771,7.318,17.606,7.318a17.192,17.192,0,0,0,5.335-.812,5.008,5.008,0,0,0,3.071-6.371,5.062,5.062,0,0,0-.27-.63l-2.925-5.722a2.043,2.043,0,0,1,2.8-2.721l1.468.805a3.572,3.572,0,0,0,5.239-3.827Z" transform="translate(-123.341 -122.589)"/>
      </g>
    </g>
    <g id="Group_1450" data-name="Group 1450" transform="translate(2.139 0)">
      <g id="Group_1449" data-name="Group 1449" transform="translate(0)">
        <path id="Path_886" data-name="Path 886" class="cls-1" d="M6.482,4.239c-6.395,6.4-5.367,18.3,2.391,27.687l1.1-.912C2.688,22.2,1.622,11.127,7.492,5.249,13.517-.767,25.14.6,33.955,8.359L34.9,7.287C25.365-1.109,13.148-2.419,6.482,4.239Z" transform="translate(-2.293 0)"/>
      </g>
    </g>
    <g id="Group_1452" data-name="Group 1452" transform="translate(21.414 4.323)">
      <g id="Group_1451" data-name="Group 1451">
        <path id="Path_887" data-name="Path 887" class="cls-1" d="M235.9,51.592a3.572,3.572,0,1,0,3.572,3.572A3.576,3.576,0,0,0,235.9,51.592Zm0,5.715a2.143,2.143,0,1,1,2.143-2.143A2.146,2.146,0,0,1,235.9,57.307Z" transform="translate(-232.331 -51.592)"/>
      </g>
    </g>
    <g id="Group_1454" data-name="Group 1454" transform="translate(12.127 2.894)">
      <g id="Group_1453" data-name="Group 1453">
        <path id="Path_888" data-name="Path 888" class="cls-1" d="M125.064,34.54a3.572,3.572,0,1,0,3.572,3.572A3.576,3.576,0,0,0,125.064,34.54Zm0,5.715a2.143,2.143,0,1,1,2.143-2.143A2.146,2.146,0,0,1,125.064,40.255Z" transform="translate(-121.492 -34.54)"/>
      </g>
    </g>
    <g id="Group_1456" data-name="Group 1456" transform="translate(5.697 9.324)">
      <g id="Group_1455" data-name="Group 1455">
        <path id="Path_889" data-name="Path 889" class="cls-1" d="M48.329,111.275a3.572,3.572,0,1,0,3.572,3.572A3.576,3.576,0,0,0,48.329,111.275Zm0,5.715a2.143,2.143,0,1,1,2.143-2.143A2.146,2.146,0,0,1,48.329,116.99Z" transform="translate(-44.757 -111.275)"/>
      </g>
    </g>
    <g id="Group_1458" data-name="Group 1458" transform="translate(7.126 17.896)">
      <g id="Group_1457" data-name="Group 1457" transform="translate(0)">
        <path id="Path_890" data-name="Path 890" class="cls-1" d="M65.381,213.588a3.572,3.572,0,1,0,3.572,3.572A3.576,3.576,0,0,0,65.381,213.588Zm0,5.715a2.143,2.143,0,1,1,2.143-2.143A2.146,2.146,0,0,1,65.381,219.3Z" transform="translate(-61.809 -213.588)"/>
      </g>
    </g>
    <g id="Group_1460" data-name="Group 1460" transform="translate(19.271 30.756)">
      <g id="Group_1459" data-name="Group 1459">
        <path id="Path_891" data-name="Path 891" class="cls-1" d="M210.325,367.057a3.572,3.572,0,1,0,3.572,3.572A3.576,3.576,0,0,0,210.325,367.057Zm0,5.715a2.143,2.143,0,1,1,2.143-2.143A2.146,2.146,0,0,1,210.325,372.772Z" transform="translate(-206.753 -367.057)"/>
      </g>
    </g>
    <g id="Group_1462" data-name="Group 1462" transform="translate(32.845 17.182)">
      <g id="Group_1461" data-name="Group 1461">
        <path id="Path_892" data-name="Path 892" class="cls-1" d="M371.963,205.062a3.215,3.215,0,1,0,3.215,3.215A3.219,3.219,0,0,0,371.963,205.062Zm0,5a1.786,1.786,0,1,1,1.786-1.786A1.788,1.788,0,0,1,371.963,210.063Z" transform="translate(-368.748 -205.062)"/>
      </g>
    </g>
  </g>
</svg>
