<svg xmlns="http://www.w3.org/2000/svg" xmlns:xlink="http://www.w3.org/1999/xlink" viewBox="0 0 48 48">
  <defs>
    <style>
      .cls-1 {
        clip-path: url(#clip-Витаминизированное_питание);
      }

      .cls-2 {
        fill: #f18b6c;
      }

      .cls-3 {
        fill: rgba(255,255,255,0.07);
      }
    </style>
    <clipPath id="clip-Витаминизированное_питание">
      <rect width="48" height="48"/>
    </clipPath>
  </defs>
  <g id="Витаминизированное_питание" data-name="Витаминизированное питание" class="cls-1">
    <rect class="cls-3" width="48" height="48"/>
    <g id="fruit_1_" data-name="fruit (1)" transform="translate(0 -0.653)">
      <g id="Group_789" data-name="Group 789" transform="translate(31.354 10.997)">
        <g id="Group_788" data-name="Group 788" transform="translate(0 0)">
          <rect id="Rectangle_250" data-name="Rectangle 250" class="cls-2" width="1.372" height="1.372" transform="translate(0 0.007) rotate(-0.309)"/>
        </g>
      </g>
      <g id="Group_791" data-name="Group 791" transform="translate(0 0.653)">
        <g id="Group_790" data-name="Group 790" transform="translate(0 0)">
          <path id="Path_580" data-name="Path 580" class="cls-2" d="M47.2,26.125H35.842L36.8,11.78a.808.808,0,0,0-.215-.6A.875.875,0,0,0,36,10.927l-1.6.009.008,1.6h.741L34.96,15.4l-2.32,1.287a8.832,8.832,0,0,1-7.839.345V12.584l4.8-.025-.008-1.6-4.793.025V7.367l8.429-5.359L32.373.653l-8.8,5.6a.8.8,0,0,0-.37.675v4.065l-11.195.058a.8.8,0,0,0-.8.8c0,.016,0,.033,0,.049l.89,13.35a13.65,13.65,0,0,0-1.12,2.676,7.951,7.951,0,0,0-6.932-4.072.8.8,0,0,0-.8.8,7.9,7.9,0,0,0,1.312,4.365,4.429,4.429,0,0,0-.96.64l-.232.2A9.919,9.919,0,0,0,.326,39.84l.489,1.889A9.95,9.95,0,0,0,4.934,47.52a5.6,5.6,0,0,0,5.877.228l-.045-.08a19.444,19.444,0,0,0,4.6.778c.16.008.32.008.486.011v.066H26.4A21.578,21.578,0,0,0,48,26.963v-.038A.8.8,0,0,0,47.2,26.125ZM35.536,28.161v-.436H43.5A17.158,17.158,0,0,1,33.317,42.6a16.967,16.967,0,0,1-4.654,1.3,18.357,18.357,0,0,0,3.151-3.56A21.664,21.664,0,0,0,35.536,28.161ZM23.2,12.592V16.46a10.423,10.423,0,0,0-7.813.914l-2.129,1.183-.394-5.912ZM14.52,24.48l.1-.126L13.6,23.565l-.217-3.24,2.785-1.553a8.829,8.829,0,0,1,7.9-.32,10.426,10.426,0,0,0,9.344-.376l1.413-.785-.358,5.379a2.669,2.669,0,0,0-.581-.34l-1.2-.5a2.267,2.267,0,0,0-1.97.1,2.315,2.315,0,0,0-1.171,1.645,21.11,21.11,0,0,1-7.227,12.576,9.9,9.9,0,0,0-3.289-6.291l-.232-.2a4.352,4.352,0,0,0-5.695-.08l-1.007.84A11.994,11.994,0,0,1,14.52,24.48Zm-4.172,6.47a6.362,6.362,0,0,1-5.434-5.434A6.365,6.365,0,0,1,10.347,30.949ZM5.821,46.19a8.357,8.357,0,0,1-3.458-4.862l-.49-1.888a8.328,8.328,0,0,1,2.564-8.374h0l.232-.2a2.779,2.779,0,0,1,.97-.537A7.919,7.919,0,0,0,11.2,32.6a.787.787,0,0,0,.15-.03,2.17,2.17,0,0,0,1.241-.49l1.532-1.28a2.76,2.76,0,0,1,3.612.052l.232.2a8.314,8.314,0,0,1,2.819,6.251,21.127,21.127,0,0,1-10.546,3.772L6.7,41.35a.8.8,0,0,0-.74.8v2.914a.8.8,0,0,0,.4.69l.111.066A19.48,19.48,0,0,0,8.5,46.843,4.022,4.022,0,0,1,5.821,46.19Zm9.623.658h0A17.929,17.929,0,0,1,7.565,44.6V42.889l2.8-.211A22.8,22.8,0,0,0,31.126,23.857a.72.72,0,0,1,.364-.516.667.667,0,0,1,.585-.031l1.2.5a1.074,1.074,0,0,1,.663,1v3.36a20.077,20.077,0,0,1-3.448,11.285A16.994,16.994,0,0,1,15.444,46.847Zm10.959.075H23.854A18.4,18.4,0,0,0,26.4,45.58v.074a18.559,18.559,0,0,0,7.562-1.6A18.758,18.758,0,0,0,45.1,27.725h1.282A19.977,19.977,0,0,1,26.4,46.923Z" transform="translate(0 -0.653)"/>
        </g>
      </g>
      <g id="Group_793" data-name="Group 793" transform="translate(36.983 29.466)">
        <g id="Group_792" data-name="Group 792">
          <rect id="Rectangle_251" data-name="Rectangle 251" class="cls-2" width="1.372" height="1.372"/>
        </g>
      </g>
      <g id="Group_795" data-name="Group 795" transform="translate(34.571 37.504)">
        <g id="Group_794" data-name="Group 794">
          <rect id="Rectangle_252" data-name="Rectangle 252" class="cls-2" width="1.372" height="1.372"/>
        </g>
      </g>
      <g id="Group_797" data-name="Group 797" transform="translate(36.983 34.289)">
        <g id="Group_796" data-name="Group 796">
          <rect id="Rectangle_253" data-name="Rectangle 253" class="cls-2" width="1.372" height="1.372"/>
        </g>
      </g>
    </g>
  </g>
</svg>
