<svg xmlns="http://www.w3.org/2000/svg" xmlns:xlink="http://www.w3.org/1999/xlink" viewBox="0 0 48 48">
  <defs>
    <style>
      .cls-1 {
        clip-path: url(#clip-Контроль_за_санитарным_состоянием_групп);
      }

      .cls-2 {
        fill: #f18b6c;
      }

      .cls-3 {
        fill: rgba(255,255,255,0.07);
      }
    </style>
    <clipPath id="clip-Контроль_за_санитарным_состоянием_групп">
      <rect width="48" height="48"/>
    </clipPath>
  </defs>
  <g id="Контроль_за_санитарным_состоянием_групп" data-name="Контроль за санитарным состоянием групп" class="cls-1">
    <rect class="cls-3" width="48" height="48"/>
    <g id="broom" transform="translate(-82.998)">
      <g id="Group_1620" data-name="Group 1620" transform="translate(91.997)">
        <g id="Group_1619" data-name="Group 1619">
          <path id="Path_969" data-name="Path 969" class="cls-2" d="M112.659,37.44V33.6a.809.809,0,0,0-.36-.678l-5.762-3.766V2.4a2.3,2.3,0,1,0-4.591,0V29.156l-5.762,3.766a.809.809,0,0,0-.36.678v4a.8.8,0,0,0,.03.154L92.061,46.88a.814.814,0,0,0,.4,1.053.738.738,0,0,0,.306.067H115.72a.783.783,0,0,0,.765-.8.83.83,0,0,0-.059-.308ZM103.477,2.4a.766.766,0,1,1,1.53,0V25.6h-1.53Zm0,24.8h1.53v1.6h-1.53Zm-6.122,6.843,5.576-3.643h2.622l5.576,3.643V36.8H97.355ZM112.445,46.4l-1.356-4.253a.759.759,0,0,0-.969-.507.81.81,0,0,0-.485,1.013l1.2,3.747h-2.214l-1.356-4.253a.759.759,0,0,0-.969-.507.81.81,0,0,0-.485,1.013l1.2,3.747h-5.53l1.195-3.747a.81.81,0,0,0-.485-1.013.759.759,0,0,0-.969.507L99.865,46.4H97.651l1.195-3.747a.81.81,0,0,0-.485-1.013.759.759,0,0,0-.969.507L96.038,46.4H93.929l3.324-8h14.13l3.189,8Z" transform="translate(-91.997)"/>
          <path id="Path_970" data-name="Path 970" class="cls-2" d="M285.025,252.09h1.022v1.022a1.022,1.022,0,0,0,2.045,0V252.09h1.022a1.022,1.022,0,0,0,0-2.045h-1.022v-1.022a1.022,1.022,0,0,0-2.045,0v1.022h-1.022a1.022,1.022,0,0,0,0,2.045Z" transform="translate(-265.836 -223.966)"/>
          <path id="Path_971" data-name="Path 971" class="cls-2" d="M345.115,290.045h-1.022v-1.022a1.022,1.022,0,0,0-2.045,0v1.022h-1.022a1.022,1.022,0,1,0,0,2.045h1.022v1.022a1.022,1.022,0,1,0,2.045,0V292.09h1.022a1.022,1.022,0,1,0,0-2.045Z" transform="translate(-316.537 -260.09)"/>
          <path id="Path_972" data-name="Path 972" class="cls-2" d="M195.16,336h-6.135a1.022,1.022,0,0,0,0,2.045h6.135a1.022,1.022,0,0,0,0-2.045Z" transform="translate(-179.139 -302.722)"/>
        </g>
      </g>
    </g>
  </g>
</svg>
