<svg xmlns="http://www.w3.org/2000/svg" xmlns:xlink="http://www.w3.org/1999/xlink" viewBox="0 0 48 48">
  <defs>
    <style>
      .cls-1 {
        clip-path: url(#clip-Меню_в_зависимости_от_сезона);
      }

      .cls-2 {
        fill: #f18b6c;
      }

      .cls-3 {
        fill: rgba(255,255,255,0.07);
      }
    </style>
    <clipPath id="clip-Меню_в_зависимости_от_сезона">
      <rect width="48" height="48"/>
    </clipPath>
  </defs>
  <g id="Меню_в_зависимости_от_сезона" data-name="Меню, в зависимости от сезона" class="cls-1">
    <rect class="cls-3" width="48" height="48"/>
    <g id="vegetarian" transform="translate(0 -0.001)">
      <g id="Group_1578" data-name="Group 1578" transform="translate(35.4 5.401)">
        <g id="Group_1577" data-name="Group 1577">
          <path id="Path_948" data-name="Path 948" class="cls-2" d="M374.3,48c-3.474,0-6.3,3.129-6.3,6.975a7.085,7.085,0,0,0,3.6,6.3v21.6a2.73,2.73,0,0,0,5.4,0v-21.6a7.085,7.085,0,0,0,3.6-6.3C380.6,51.128,377.774,48,374.3,48Zm1.416,12.114a.775.775,0,0,0-.516.7v22.06a.91.91,0,0,1-1.8,0V60.814a.775.775,0,0,0-.516-.7,5.445,5.445,0,0,1-3.084-5.139c0-2.991,2.019-5.425,4.5-5.425s4.5,2.434,4.5,5.425A5.445,5.445,0,0,1,375.716,60.113Z" transform="translate(-368 -47.999)"/>
        </g>
      </g>
      <g id="Group_1580" data-name="Group 1580" transform="translate(0 5.401)">
        <g id="Group_1579" data-name="Group 1579">
          <path id="Path_949" data-name="Path 949" class="cls-2" d="M9.9,48a2.946,2.946,0,0,0-1.8.594,3.026,3.026,0,0,0-3.6,0A2.946,2.946,0,0,0,2.7,48,2.537,2.537,0,0,0,0,50.324v7.75A2.537,2.537,0,0,0,2.7,60.4h.9V82.874A2.537,2.537,0,0,0,6.3,85.2,2.537,2.537,0,0,0,9,82.874V60.4h.9a2.537,2.537,0,0,0,2.7-2.325v-7.75A2.537,2.537,0,0,0,9.9,48Zm.9,10.075a.845.845,0,0,1-.9.775H8.1a.844.844,0,0,0-.9.775v23.25a.845.845,0,0,1-.9.775.845.845,0,0,1-.9-.775V59.624a.844.844,0,0,0-.9-.775H2.7a.845.845,0,0,1-.9-.775v-7.75a.845.845,0,0,1,.9-.775.845.845,0,0,1,.9.775v4.65a.844.844,0,0,0,.9.775.844.844,0,0,0,.9-.775v-4.65a.845.845,0,0,1,.9-.775.845.845,0,0,1,.9.775v4.65a.844.844,0,0,0,.9.775.844.844,0,0,0,.9-.775v-4.65a.845.845,0,0,1,.9-.775.845.845,0,0,1,.9.775Z" transform="translate(0 -47.999)"/>
        </g>
      </g>
      <g id="Group_1582" data-name="Group 1582" transform="translate(11.399 3.6)">
        <g id="Group_1581" data-name="Group 1581">
          <path id="Path_950" data-name="Path 950" class="cls-2" d="M152.338,57.929c-.252-.023-6.215-.543-9.642,2.445a7.282,7.282,0,0,0-1.205,1.363V57.093c.147,0,.31.006.488.006,2,0,5.85-.311,8.354-2.494,3.428-2.989,2.831-8.187,2.8-8.406a.848.848,0,0,0-.8-.7c-.252-.023-6.214-.544-9.642,2.444a7.307,7.307,0,0,0-1.205,1.363V47.255c1.1-.854,4.5-3.8,4.5-7.42,0-4.227-4.638-7.534-4.836-7.672a1,1,0,0,0-1.13,0c-.2.14-4.836,3.447-4.836,7.674,0,3.625,3.4,6.566,4.5,7.42v2.055a7.282,7.282,0,0,0-1.205-1.363c-3.428-2.989-9.391-2.468-9.642-2.444a.848.848,0,0,0-.8.7c-.027.219-.625,5.416,2.8,8.406,2.5,2.183,6.359,2.494,8.354,2.494.179,0,.341,0,.488-.006v4.643a7.306,7.306,0,0,0-1.205-1.363c-3.428-2.989-9.39-2.468-9.642-2.445a.848.848,0,0,0-.8.7c-.027.219-.625,5.416,2.8,8.406,2.5,2.182,6.356,2.494,8.352,2.494.18,0,.343,0,.49-.006v3.27h1.8V69.518c.148,0,.311.006.49.006,2,0,5.848-.311,8.351-2.493,3.428-2.99,2.831-8.187,2.8-8.406A.848.848,0,0,0,152.338,57.929Zm-8.37-8.871c2.175-1.9,5.84-2.053,7.419-2.027.034,1.375-.144,4.563-2.327,6.466s-5.846,2.048-7.419,2.028C141.606,54.15,141.785,50.961,143.968,49.058Zm-4.43,6.467c-1.58.024-5.243-.133-7.418-2.028S129.763,48.4,129.8,47.03c1.569-.035,5.234.125,7.417,2.028S139.569,54.148,139.538,55.525Zm0,12.426c-1.579.035-5.234-.126-7.418-2.028s-2.357-5.092-2.325-6.468c1.571-.034,5.234.126,7.417,2.029S139.57,66.575,139.538,67.951Zm1.631-22.622H140.01c-1.233-1.149-3.02-3.206-3.02-5.492,0-2.681,2.461-5.051,3.6-6.005,1.139.954,3.6,3.324,3.6,6.005C144.19,42.123,142.4,44.18,141.169,45.328Zm7.891,20.594c-2.175,1.9-5.842,2.049-7.419,2.027-.035-1.375.144-4.563,2.327-6.466s5.844-2.052,7.417-2.028C151.417,60.833,151.233,64.027,149.06,65.922Z" transform="translate(-127.989 -31.989)"/>
        </g>
      </g>
      <g id="Group_1584" data-name="Group 1584" transform="translate(11.025 3.321)">
        <g id="Group_1583" data-name="Group 1583">
          <path id="Path_951" data-name="Path 951" class="cls-2" d="M112.449,29.511c-.527.29-1.049.6-1.553.923l.972,1.516q.707-.454,1.447-.86Z" transform="translate(-110.896 -29.511)"/>
        </g>
      </g>
      <g id="Group_1586" data-name="Group 1586" transform="translate(23.104 0.001)">
        <g id="Group_1585" data-name="Group 1585" transform="translate(0 0)">
          <path id="Path_952" data-name="Path 952" class="cls-2" d="M232.048.016l.06,1.8c.559-.019,1.125-.017,1.685,0l.06-1.8C233.253,0,232.648,0,232.048.016Z" transform="translate(-232.048 -0.001)"/>
        </g>
      </g>
      <g id="Group_1588" data-name="Group 1588" transform="translate(19.919 0.134)">
        <g id="Group_1587" data-name="Group 1587">
          <path id="Path_953" data-name="Path 953" class="cls-2" d="M201.926,1.183c-.6.059-1.2.14-1.79.239l.3,1.776q.826-.139,1.67-.223Z" transform="translate(-200.136 -1.183)"/>
        </g>
      </g>
      <g id="Group_1590" data-name="Group 1590" transform="translate(26.127 0.136)">
        <g id="Group_1589" data-name="Group 1589">
          <path id="Path_954" data-name="Path 954" class="cls-2" d="M262.69,1.2l-.178,1.791c.562.056,1.119.131,1.669.223l.3-1.775C263.888,1.339,263.286,1.259,262.69,1.2Z" transform="translate(-262.512 -1.199)"/>
        </g>
      </g>
      <g id="Group_1592" data-name="Group 1592" transform="translate(16.805 0.732)">
        <g id="Group_1591" data-name="Group 1591">
          <path id="Path_955" data-name="Path 955" class="cls-2" d="M170.67,6.495c-.581.138-1.167.3-1.742.476l.533,1.719q.8-.248,1.625-.445Z" transform="translate(-168.928 -6.495)"/>
        </g>
      </g>
      <g id="Group_1594" data-name="Group 1594" transform="translate(29.049 0.734)">
        <g id="Group_1593" data-name="Group 1593">
          <path id="Path_956" data-name="Path 956" class="cls-2" d="M292.426,6.519l-.418,1.751q.822.2,1.624.446L294.167,7C293.6,6.82,293.012,6.659,292.426,6.519Z" transform="translate(-292.008 -6.519)"/>
        </g>
      </g>
      <g id="Group_1596" data-name="Group 1596" transform="translate(13.823 1.801)">
        <g id="Group_1595" data-name="Group 1595">
          <path id="Path_957" data-name="Path 957" class="cls-2" d="M140.669,16c-.56.215-1.119.453-1.661.7l.759,1.633q.761-.354,1.55-.659Z" transform="translate(-139.008 -15.999)"/>
        </g>
      </g>
      <g id="Group_1598" data-name="Group 1598" transform="translate(34.566 3.33)">
        <g id="Group_1597" data-name="Group 1597">
          <path id="Path_958" data-name="Path 958" class="cls-2" d="M348.565,29.591l-.869,1.576q.74.408,1.449.861l.97-1.517Q349.357,30.027,348.565,29.591Z" transform="translate(-347.696 -29.591)"/>
        </g>
      </g>
      <g id="Group_1600" data-name="Group 1600" transform="translate(31.878 1.806)">
        <g id="Group_1599" data-name="Group 1599">
          <path id="Path_959" data-name="Path 959" class="cls-2" d="M321.225,16.047l-.649,1.679q.787.305,1.549.659l.761-1.631C322.346,16.5,321.787,16.264,321.225,16.047Z" transform="translate(-320.576 -16.047)"/>
        </g>
      </g>
      <g id="Group_1602" data-name="Group 1602" transform="translate(13.811 43.858)">
        <g id="Group_1601" data-name="Group 1601">
          <path id="Path_960" data-name="Path 960" class="cls-2" d="M139.649,443.175l-.761,1.631c.54.252,1.1.49,1.661.707l.649-1.679Q140.411,443.529,139.649,443.175Z" transform="translate(-138.888 -443.175)"/>
        </g>
      </g>
      <g id="Group_1604" data-name="Group 1604" transform="translate(26.112 45.852)">
        <g id="Group_1603" data-name="Group 1603">
          <path id="Path_961" data-name="Path 961" class="cls-2" d="M264.03,460.895c-.55.094-1.108.168-1.67.224l.178,1.791c.6-.059,1.2-.14,1.79-.239Z" transform="translate(-262.36 -460.895)"/>
        </g>
      </g>
      <g id="Group_1606" data-name="Group 1606" transform="translate(11.015 42.234)">
        <g id="Group_1605" data-name="Group 1605">
          <path id="Path_962" data-name="Path 962" class="cls-2" d="M111.77,428.735l-.97,1.517q.759.485,1.55.921l.869-1.577Q112.479,429.189,111.77,428.735Z" transform="translate(-110.8 -428.735)"/>
        </g>
      </g>
      <g id="Group_1608" data-name="Group 1608" transform="translate(16.793 45.07)">
        <g id="Group_1607" data-name="Group 1607">
          <path id="Path_963" data-name="Path 963" class="cls-2" d="M169.343,453.951l-.536,1.719c.569.176,1.155.337,1.742.477l.418-1.75Q170.145,454.2,169.343,453.951Z" transform="translate(-168.808 -453.951)"/>
        </g>
      </g>
      <g id="Group_1610" data-name="Group 1610" transform="translate(23.09 46.186)">
        <g id="Group_1609" data-name="Group 1609">
          <path id="Path_964" data-name="Path 964" class="cls-2" d="M233.649,463.872c-.56.018-1.126.017-1.686,0l-.059,1.8c.3.011.607.016.911.016s.6,0,.895-.015Z" transform="translate(-231.904 -463.871)"/>
        </g>
      </g>
      <g id="Group_1612" data-name="Group 1612" transform="translate(34.556 42.243)">
        <g id="Group_1611" data-name="Group 1611">
          <path id="Path_965" data-name="Path 965" class="cls-2" d="M349.047,428.815q-.707.454-1.447.86l.867,1.579c.526-.29,1.049-.6,1.552-.923Z" transform="translate(-347.6 -428.815)"/>
        </g>
      </g>
      <g id="Group_1614" data-name="Group 1614" transform="translate(19.906 45.852)">
        <g id="Group_1613" data-name="Group 1613">
          <path id="Path_966" data-name="Path 966" class="cls-2" d="M200.3,460.895l-.3,1.775c.59.1,1.193.179,1.788.239l.178-1.791C201.4,461.062,200.848,460.987,200.3,460.895Z" transform="translate(-200 -460.895)"/>
        </g>
      </g>
      <g id="Group_1616" data-name="Group 1616" transform="translate(29.037 45.075)">
        <g id="Group_1615" data-name="Group 1615">
          <path id="Path_967" data-name="Path 967" class="cls-2" d="M293.513,453.991q-.8.248-1.625.445l.417,1.751c.581-.138,1.167-.3,1.742-.476Z" transform="translate(-291.888 -453.991)"/>
        </g>
      </g>
      <g id="Group_1618" data-name="Group 1618" transform="translate(31.868 43.863)">
        <g id="Group_1617" data-name="Group 1617">
          <path id="Path_968" data-name="Path 968" class="cls-2" d="M322.022,443.223q-.761.354-1.55.659l.647,1.679c.56-.215,1.119-.453,1.661-.7Z" transform="translate(-320.472 -443.223)"/>
        </g>
      </g>
    </g>
  </g>
</svg>
